<svg preserveAspectRatio="none" width="100%" height="100%" overflow="visible" style="display: block;" viewBox="0 0 100.393 54" fill="none" xmlns="http://www.w3.org/2000/svg">
<g id="Vrstva_1" clip-path="url(#clip0_0_417)">
<path id="Vector" d="M62.3288 33.913C61.8311 34.075 61.291 34.156 60.7124 34.156C58.6948 34.156 57.6841 33.153 57.6841 31.147C57.6841 29.249 58.6948 28.3 60.7124 28.3C61.291 28.3 61.8311 28.3811 62.3288 28.5431V29.1873C61.8311 28.9983 61.318 28.9057 60.7934 28.9057C59.2195 28.9057 58.4325 29.6541 58.4325 31.147C58.4325 32.748 59.2195 33.5504 60.7934 33.5504C61.318 33.5504 61.8311 33.4539 62.3288 33.2688V33.9168V33.913Z" fill="var(--fill-0, #13576B)"/>
<path id="Vector_2" d="M67.1007 28.3425V28.9481H64.0724V30.8847H66.958V31.4904H64.0724V33.5118H67.1625V34.1174H63.324V28.3425H67.1007Z" fill="var(--fill-0, #13576B)"/>
<path id="Vector_3" d="M68.1577 33.913V33.2263C68.7634 33.4424 69.4153 33.5504 70.1213 33.5504C71.1127 33.5504 71.6104 33.1877 71.6104 32.4586C71.6104 31.8414 71.2439 31.5289 70.5109 31.5289H69.6854C68.4779 31.5289 67.8723 31.0043 67.8723 29.955C67.8723 28.8517 68.6477 28.3 70.1946 28.3C70.8658 28.3 71.4908 28.3811 72.0694 28.5431V29.2297C71.4908 29.0137 70.8658 28.9057 70.1946 28.9057C69.1453 28.9057 68.6207 29.2568 68.6207 29.955C68.6207 30.5722 68.9756 30.8847 69.6854 30.8847H70.5109C71.7415 30.8847 72.3549 31.4093 72.3549 32.4586C72.3549 33.5889 71.6104 34.156 70.1174 34.156C69.4153 34.156 68.7595 34.075 68.1539 33.913" fill="var(--fill-0, #13576B)"/>
<path id="Vector_4" d="M78.0643 28.3425L75.4758 31.0351L78.4038 34.1136H77.285L74.7313 31.2975V30.8461L77.123 28.3425H78.0682H78.0643ZM74.0832 34.1174H73.3386V28.3463H74.0832V34.1174Z" fill="var(--fill-0, #13576B)"/>
<path id="Vector_5" d="M82.5392 26.6952V27.3009L80.9229 27.9066V27.3009L82.5392 26.6952ZM78.9053 34.1174L81.3549 28.3463H82.1843L84.6455 34.1174H83.8586L83.0909 32.3005H81.162L81.3665 31.6948H82.8093L81.7445 29.1179L79.6807 34.1174H78.9053Z" fill="var(--fill-0, #13576B)"/>
<path id="Vector_6" d="M60.2225 43.4299C60.913 43.4299 61.2563 43.0789 61.2563 42.3806C61.2563 41.6824 60.7934 41.3583 59.8714 41.3583H59.5474V40.8684C60.6507 40.718 61.2023 40.3206 61.2023 39.6725C61.2023 39.1324 60.8937 38.8663 60.2803 38.8663H58.6331V43.4261H60.2186L60.2225 43.4299ZM57.8886 44.0356V38.2606H60.3498C61.4492 38.2606 61.997 38.7081 61.997 39.6069C61.997 40.2628 61.6382 40.7334 60.9207 41.015C61.6845 41.1577 62.0664 41.5937 62.0664 42.3266C62.0664 43.4646 61.4646 44.0356 60.261 44.0356H57.8847H57.8886Z" fill="var(--fill-0, #13576B)"/>
<path id="Vector_7" d="M62.5525 44.0356L65.0021 38.2645H65.8277L68.2928 44.0356H67.5058L66.7381 42.2186H64.8093L65.0137 41.6168H66.4565L65.3879 39.0399L63.324 44.0356H62.5525Z" fill="var(--fill-0, #13576B)"/>
<path id="Vector_8" d="M69.045 44.0356V38.2645H69.7934L73.3232 42.8744V38.2645H74.0291V44.0356H73.2846L69.751 39.4256V44.0356H69.045Z" fill="var(--fill-0, #13576B)"/>
<path id="Vector_9" d="M80.024 38.2645L77.4355 40.9571L80.3635 44.0356H79.2448L76.691 41.2156V40.7643L79.0827 38.2606H80.0279L80.024 38.2645ZM76.0467 44.0356H75.2983V38.2606H76.0467V44.0356Z" fill="var(--fill-0, #13576B)"/>
<path id="Vector_10" d="M83.3223 43.4724C84.6995 43.4724 85.3901 42.6931 85.3901 41.1346C85.3901 39.5761 84.6995 38.8277 83.3223 38.8277C81.9451 38.8277 81.2122 39.5954 81.2122 41.1346C81.2122 42.6738 81.9143 43.4724 83.3223 43.4724ZM80.4214 41.1577C80.4214 39.2019 81.3858 38.222 83.3185 38.222C85.2512 38.222 86.1732 39.2019 86.1732 41.1577C86.1732 43.1136 85.2242 44.078 83.3185 44.078C81.4128 44.078 80.4214 43.1059 80.4214 41.1577Z" fill="var(--fill-0, #13576B)"/>
<path id="Vector_11" d="M92.1796 38.2645L89.73 44.0356H88.9006L86.4393 38.2645H87.2263L89.3403 43.264L91.4042 38.2645H92.1796Z" fill="var(--fill-0, #13576B)"/>
<path id="Vector_12" d="M92.9357 44.0356V38.2645H93.6802L97.2139 42.8744V38.2645H97.9198V44.0356H97.1753L93.6417 39.4256V44.0356H92.9357Z" fill="var(--fill-0, #13576B)"/>
<path id="Vector_13" d="M99.2006 44.0356H99.949V38.2645H99.2006V44.0356ZM100.393 36.6172V37.2229L98.7763 37.8285V37.2229L100.393 36.6172Z" fill="var(--fill-0, #13576B)"/>
<path id="Vector_14" d="M57.3832 53.9576L59.8328 48.1865H60.6622L63.1234 53.9576H62.3365L61.5688 52.1406H59.64L59.8483 51.5388H61.2872L60.2225 48.9618L58.1586 53.9576H57.3832Z" fill="var(--fill-0, #13576B)"/>
<g id="Group">
<path id="Vector_15" d="M63.9027 53.757V53.0703C64.5084 53.2825 65.1603 53.3943 65.8663 53.3943C66.8577 53.3943 67.3553 53.0317 67.3553 52.3026C67.3553 51.6854 66.9889 51.3729 66.2559 51.3729H65.4304C64.2229 51.3729 63.6172 50.8483 63.6172 49.799C63.6172 48.6957 64.3926 48.144 65.9396 48.144C66.6108 48.144 67.2358 48.225 67.8144 48.3871V49.0737C67.2358 48.8615 66.6108 48.7497 65.9396 48.7497C64.8903 48.7497 64.3656 49.1007 64.3656 49.799C64.3656 50.4162 64.7205 50.7287 65.4304 50.7287H66.2559C67.4865 50.7287 68.0999 51.2533 68.0999 52.3026C68.0999 53.4329 67.3553 54 65.8624 54C65.1603 54 64.5045 53.919 63.8988 53.757" fill="var(--fill-0, #13576B)"/>
<path id="Vector_16" d="M71.7685 53.3943C73.1457 53.3943 73.8363 52.6151 73.8363 51.0566C73.8363 49.4981 73.1457 48.7497 71.7685 48.7497C70.3913 48.7497 69.6584 49.5174 69.6584 51.0566C69.6584 52.5958 70.3605 53.3943 71.7685 53.3943ZM68.8676 51.0797C68.8676 49.1239 69.832 48.144 71.7647 48.144C73.6974 48.144 74.6194 49.12 74.6194 51.0797C74.6194 53.0394 73.6665 54 71.7647 54C69.8628 54 68.8676 53.0279 68.8676 51.0797Z" fill="var(--fill-0, #13576B)"/>
<path id="Vector_17" d="M80.0703 53.757C79.5727 53.919 79.0326 54 78.4539 54C76.4363 54 75.4256 52.997 75.4256 50.991C75.4256 49.093 76.4325 48.144 78.4539 48.144C79.0326 48.144 79.5688 48.225 80.0703 48.3871V49.0352C79.5727 48.8461 79.0596 48.7497 78.5349 48.7497C76.961 48.7497 76.174 49.4981 76.174 50.991C76.174 52.5919 76.961 53.3943 78.5349 53.3943C79.0596 53.3943 79.5688 53.2979 80.0703 53.1089V53.757Z" fill="var(--fill-0, #13576B)"/>
</g>
<path id="Vector_18" d="M81.8333 48.1865H81.0849V53.9576H81.8333V48.1865Z" fill="var(--fill-0, #13576B)"/>
<path id="Vector_19" d="M82.5855 53.9576L85.0351 48.1865H85.8607L88.3258 53.9576H87.5388L86.7711 52.1406H84.8423L85.0467 51.5388H86.4895L85.4209 48.9618L83.357 53.9576H82.5855Z" fill="var(--fill-0, #13576B)"/>
<path id="Vector_20" d="M93.2135 53.757C92.7158 53.919 92.1757 54 91.5971 54C89.5795 54 88.5688 52.997 88.5688 50.991C88.5688 49.093 89.5757 48.144 91.5971 48.144C92.1757 48.144 92.712 48.225 93.2135 48.3871V49.0351C92.7158 48.8461 92.2027 48.7497 91.6781 48.7497C90.1042 48.7497 89.3172 49.4981 89.3172 50.991C89.3172 52.5919 90.1042 53.3943 91.6781 53.3943C92.2027 53.3943 92.712 53.2979 93.2135 53.1089V53.757Z" fill="var(--fill-0, #13576B)"/>
<path id="Vector_21" d="M97.9854 48.1865V48.7921H94.9571V50.7287H97.8465V51.3343H94.9571V53.3519H98.0471V53.9576H94.2126V48.1865H97.9854Z" fill="var(--fill-0, #13576B)"/>
<path id="Vector_22" d="M54.8217 26.7917H53.8958V53.9499H54.8217V26.7917Z" fill="var(--fill-0, #13576B)"/>
<path id="Vector_23" d="M61.4762 26.2709H60.8744L60.4694 26.919L60.0643 26.2709H59.4586L60.1646 27.3202H60.7703L61.4762 26.2709Z" fill="var(--fill-0, #13576B)"/>
<g id="Group_2">
<path id="Vector_24" d="M32.8637 29.6657H23.5782V2.36477H34.2332C36.4976 2.36477 41.7634 2.89713 41.7634 7.80797C41.7634 12.7188 38.0214 13.2473 35.1012 13.4016C33.1414 13.4016 28.7244 13.4016 28.7244 13.4016L29.6888 15.7432H36.135C38.0523 15.7432 44.3172 16.2525 44.3172 22.8028C44.3172 26.2902 42.2379 28.0261 39.9156 28.8748L40.799 31.039C43.7925 29.9434 46.6627 27.6327 46.6627 22.8028C46.6627 17.973 43.9661 15.3613 40.6987 14.1732C42.6854 12.9348 44.105 10.8941 44.105 7.80797C44.1012 2.06772 39.0013 0.0231462 34.2293 0.0231462H21.2327V32.0111H33.8165L32.8598 29.6695L32.8637 29.6657Z" fill="var(--fill-0, #13576B)"/>
<path id="Vector_25" d="M30.5722 36.3395L28.8671 34.6344C26.0549 37.1727 22.336 38.7197 18.2585 38.7197C9.52079 38.7197 2.41106 31.6099 2.41106 22.8723C2.41106 14.1346 9.13116 7.02486 17.8688 7.02486C18.0694 7.02486 18.27 7.03258 18.4706 7.04029V4.62923C18.27 4.62152 18.0694 4.6138 17.8688 4.6138C7.80026 4.6138 0 12.8037 0 22.8723C0 32.9408 8.18988 41.1307 18.2585 41.1307C22.9996 41.1307 27.324 39.3138 30.5722 36.3395Z" fill="var(--fill-0, #13576B)"/>
</g>
<path id="Vector_26" d="M18.4243 0H10.5084V2.34162H18.4243V0Z" fill="var(--fill-0, #13576B)"/>
<path id="Vector_27" d="M47.8123 53.9499L33.1183 17.9499H30.5144L40.9108 43.4145H19.0531L14.6129 53.9499H17.213L20.6811 45.8255H41.8946L45.2083 53.9499H47.8123Z" fill="var(--fill-0, #13576B)"/>
</g>
<defs>
<clipPath id="clip0_0_417">
<rect width="100.393" height="54" fill="white"/>
</clipPath>
</defs>
</svg>
