<svg width="55" height="60" viewBox="0 0 55 60" fill="none" xmlns="http://www.w3.org/2000/svg">
<path d="M4.20945 0.000833497C3.95971 -0.00805277 3.71262 0.0542694 3.4973 0.180456C3.28197 0.306643 3.1074 0.491435 2.99413 0.713056C2.88087 0.934676 2.83364 1.18389 2.85802 1.43133C2.88239 1.67876 2.97735 1.91411 3.13171 2.10964C8.49292 9.11966 11.7767 18.416 11.7767 28.6302C11.7767 34.4776 10.6919 40.0175 8.76616 45.0066C8.15065 44.4188 7.56026 43.8039 7.00747 43.155C6.36091 42.3952 5.47243 41.9297 4.53456 41.7899C3.59669 41.6501 2.61001 41.8365 1.76213 42.3808C-0.133064 43.5959 -0.604141 46.2505 0.863589 47.9813C7.3033 55.5689 17.0781 60 27.5536 60C37.9504 60 47.6783 55.6232 54.1208 48.1265C55.6016 46.4045 55.1439 43.7452 53.2581 42.5183C51.5681 41.42 49.3099 41.7533 48.0077 43.2645C47.4465 43.9149 46.8456 44.5304 46.2208 45.1186C44.3085 40.2762 43.2333 34.9017 43.2333 29.2313C43.2333 27.7594 43.3165 26.3114 43.4561 24.8838C44.8221 25.2143 45.8547 26.4739 45.8547 28.0521V28.7041C45.8523 28.8769 45.8844 29.0484 45.9491 29.2088C46.0139 29.3691 46.1101 29.5151 46.232 29.6381C46.354 29.7612 46.4993 29.8589 46.6595 29.9256C46.8198 29.9923 46.9917 30.0266 47.1654 30.0266C47.3391 30.0266 47.5111 29.9923 47.6713 29.9256C47.8316 29.8589 47.9769 29.7612 48.0989 29.6381C48.2208 29.5151 48.317 29.3691 48.3817 29.2088C48.4465 29.0484 48.4786 28.8769 48.4761 28.7041V28.0521C48.4761 24.8528 45.9245 22.1841 42.7495 22.1841H23.3502C23.1521 18.8241 21.8461 14.1106 19.4002 9.74771C16.5354 4.63762 11.9125 0.0161147 5.4843 0.0161147H4.49872C4.46197 0.0162767 4.42525 0.0179762 4.38864 0.0212085C4.32945 0.0103316 4.26958 0.00352382 4.20945 0.000833497ZM6.7694 2.71325C11.2885 3.27547 14.7169 6.75162 17.109 11.0186C19.2908 14.9104 20.456 19.4204 20.6981 22.1841H13.8835C12.9272 14.9393 10.4594 8.27105 6.7694 2.71325ZM14.0909 24.7921H20.6341C20.3828 27.2753 19.8891 29.5287 19.3669 30.7874C19.285 30.9854 19.2533 31.2004 19.2747 31.4135C19.2961 31.6266 19.3699 31.8311 19.4895 32.0091C19.6092 32.187 19.7711 32.333 19.9609 32.4339C20.1507 32.5349 20.3626 32.5878 20.5778 32.588H37.2584C39.0391 32.588 40.5508 33.8199 41.0344 35.5526C41.0442 35.5948 41.0562 35.6364 41.0702 35.6774C41.1706 36.4018 41.2852 37.1206 41.4183 37.832H13.5226C14.0879 34.8667 14.3981 31.791 14.3981 28.6302C14.3981 27.3188 14.1912 26.0735 14.0909 24.7921ZM23.258 24.7921H40.8347C40.6969 26.2516 40.612 27.7294 40.612 29.2313C40.612 29.8186 40.6366 30.3996 40.658 30.981C39.6652 30.3565 38.5087 29.98 37.2584 29.98H22.1445C22.6021 28.4322 23.0383 26.7698 23.258 24.7921ZM12.9542 40.4324C12.9985 40.4372 13.0429 40.4397 13.0874 40.44H41.9227C41.9432 40.4397 41.9636 40.4388 41.9841 40.4375C42.5391 42.6708 43.2555 44.8251 44.1191 46.8887C39.519 50.3655 33.7042 52.3441 27.5536 52.3441C21.3405 52.3441 15.4825 50.3345 10.8679 46.8021C11.7036 44.7618 12.4052 42.6358 12.9542 40.4324ZM4.14801 44.3699C4.47528 44.4191 4.78448 44.5812 5.00559 44.841H5.00815C10.4486 51.2275 18.7026 54.9521 27.5536 54.9521C34.5328 54.9521 41.1462 52.6211 46.3027 48.5009C46.4711 48.4178 46.6195 48.2997 46.7379 48.1545C47.9073 47.1816 48.9996 46.1165 49.9967 44.9607C50.4424 44.4436 51.2369 44.3223 51.822 44.701C52.4816 45.1301 52.6014 45.8781 52.1266 46.4303C46.2041 53.3219 37.2105 57.392 27.5536 57.392C17.8209 57.392 8.78561 53.2758 2.86547 46.3004C2.39525 45.7466 2.52029 44.9959 3.18291 44.5711C3.47664 44.3825 3.82073 44.3206 4.14801 44.3699Z" fill="#13576B"/>
</svg>
