<svg width="58" height="60" viewBox="0 0 58 60" fill="none" xmlns="http://www.w3.org/2000/svg">
<path d="M54.2174 60H54.2171L39.0845 59.998C38.0817 59.9967 37.1204 59.5953 36.4114 58.882C35.7024 58.1686 35.3036 57.2015 35.3025 56.1927V40.9714C35.3021 40.6351 35.1692 40.3127 34.9328 40.0749C34.6964 39.8371 34.3759 39.7033 34.0416 39.703H23.9547C23.6204 39.7033 23.2999 39.8371 23.0635 40.0749C22.8271 40.3127 22.6942 40.6351 22.6938 40.9714V56.1927C22.6926 57.2015 22.2938 58.1687 21.5847 58.882C20.8757 59.5954 19.9143 59.9967 18.9115 59.998L3.78324 60C3.28643 60.0001 2.79447 59.9018 2.33545 59.7106C1.87643 59.5194 1.45935 59.2391 1.10803 58.8858C0.756702 58.5324 0.478021 58.1129 0.287904 57.6511C0.097786 57.1894 -4.43036e-05 56.6945 1.5051e-08 56.1947V26.8751C0.000441959 26.345 0.110776 25.8208 0.323956 25.336C0.537135 24.8512 0.848475 24.4165 1.23809 24.0595L26.4533 0.995136C27.1481 0.355095 28.0559 5.87034e-05 28.9979 7.27906e-09C29.94 -5.86888e-05 30.8479 0.354865 31.5427 0.994819L56.7619 24.0597C57.1515 24.4167 57.4628 24.8514 57.676 25.3362C57.8891 25.821 57.9995 26.3451 58 26.8752V56.1947C58 56.6945 57.9022 57.1893 57.7122 57.651C57.5221 58.1127 57.2435 58.5322 56.8922 58.8856C56.5409 59.2389 56.1239 59.5192 55.665 59.7104C55.206 59.9017 54.7141 60 54.2174 60ZM23.9547 37.1661H34.0416C35.0445 37.1673 36.006 37.5685 36.7151 38.2819C37.4242 38.9953 37.8231 39.9625 37.8242 40.9714V56.1927C37.8246 56.529 37.9575 56.8513 38.1938 57.0891C38.4301 57.3269 38.7506 57.4607 39.0848 57.4612L54.2174 57.4631C54.5518 57.4631 54.8725 57.3295 55.1089 57.0916C55.3454 56.8537 55.4782 56.5311 55.4783 56.1947V26.8752C55.4781 26.6985 55.4413 26.5237 55.3702 26.3621C55.2991 26.2004 55.1953 26.0555 55.0655 25.9365L29.8465 2.87191C29.6148 2.65862 29.3122 2.54035 28.9981 2.54041C28.684 2.54047 28.3814 2.65885 28.1498 2.87222L2.93454 25.9366C2.8046 26.0555 2.70077 26.2004 2.62969 26.362C2.55861 26.5236 2.52184 26.6984 2.52174 26.8751V56.1947C2.52175 56.3613 2.55438 56.5263 2.61776 56.6802C2.68115 56.8341 2.77405 56.9739 2.89117 57.0917C3.00828 57.2095 3.14731 57.3029 3.30032 57.3667C3.45333 57.4304 3.61732 57.4632 3.78292 57.4631L18.9112 57.4611C19.2455 57.4608 19.566 57.327 19.8024 57.0892C20.0387 56.8514 20.1717 56.529 20.1721 56.1927V40.9714C20.1732 39.9625 20.5721 38.9953 21.2812 38.2819C21.9903 37.5685 22.9518 37.1673 23.9547 37.1661Z" fill="#13576B"/>
</svg>
