<svg width="60" height="60" viewBox="0 0 60 60" fill="none" xmlns="http://www.w3.org/2000/svg">
<path d="M21 30C22.6569 30 24 28.6569 24 27C24 25.3431 22.6569 24 21 24C19.3431 24 18 25.3431 18 27C18 28.6569 19.3431 30 21 30Z" fill="#13576B"/>
<path d="M47.9999 0C43.8579 0 40.4049 2.81402 39.3579 6.62297C40.3469 6.81598 41.3159 7.05398 42.2659 7.33195C42.9929 4.83902 45.2739 3 47.9999 3C51.3079 3 53.9999 5.69203 53.9999 9C53.9999 10.3961 53.5009 11.665 52.6989 12.686C53.4879 13.307 54.2359 13.9641 54.9489 14.655C56.2119 13.105 56.9999 11.155 56.9999 9C56.9999 4.02902 52.9709 0 47.9999 0Z" fill="#13576B"/>
<path d="M60 33C60 19.766 47.888 9 33 9C30.318 9 27.622 9.38004 24.965 10.13L16.8741 3.65707C16.332 3.22395 15.669 3 15 3C14.558 3 14.1139 3.09703 13.701 3.29602C12.6611 3.79605 12 4.84699 12 6V18.002C10.305 19.862 8.96004 21.87 7.97895 24H3C1.34297 24 0 25.343 0 27V39C0 40.657 1.34297 42 3 42H8.00098C9.16793 44.565 10.8179 46.923 12.88 48.977C12.309 50.042 12 51.246 12 52.5C12 56.636 15.365 60 19.5 60C22.297 60 24.742 58.46 26.031 56.184C28.303 56.726 30.636 57 33 57C35.364 57 37.697 56.726 39.969 56.184C41.258 58.46 43.703 60 46.5 60C50.635 60 54 56.636 54 52.5C54 51.247 53.691 50.043 53.122 48.979C57.527 44.602 60 38.922 60 33ZM48.896 48.703C50.157 49.5011 51 50.898 51 52.5C51 54.985 48.985 57 46.5 57C44.015 57 42 54.985 42 52.5C42 52.485 42.004 52.472 42.004 52.458C39.222 53.445 36.187 54 33 54C29.813 54 26.778 53.445 23.996 52.458C23.996 52.4721 24 52.485 24 52.5C24 54.985 21.985 57 19.5 57C17.015 57 15 54.985 15 52.5C15 50.898 15.843 49.5011 17.104 48.703C13.8009 46.1411 11.332 42.7921 10.032 39H3V27H10.007C11.004 24.07 12.758 21.444 15 19.203V6L24.334 13.467C27.0289 12.5489 29.933 12 33 12C46.255 12 57 21.402 57 33C57 39.2561 53.856 44.856 48.896 48.703Z" fill="#13576B"/>
</svg>
