<svg width="101" height="54" viewBox="0 0 101 54" fill="none" xmlns="http://www.w3.org/2000/svg">
<g clip-path="url(#clip0_2005_1096)">
<path d="M62.3287 33.913C61.8311 34.075 61.291 34.156 60.7124 34.156C58.6948 34.156 57.6841 33.153 57.6841 31.147C57.6841 29.249 58.6948 28.3 60.7124 28.3C61.291 28.3 61.8311 28.3811 62.3287 28.5431V29.1873C61.8311 28.9983 61.318 28.9057 60.7934 28.9057C59.2194 28.9057 58.4325 29.6541 58.4325 31.147C58.4325 32.748 59.2194 33.5504 60.7934 33.5504C61.318 33.5504 61.8311 33.4539 62.3287 33.2688V33.9168V33.913Z" fill="#13576B"/>
<path d="M67.1007 28.3425V28.9481H64.0724V30.8847H66.9579V31.4904H64.0724V33.5118H67.1624V34.1174H63.324V28.3425H67.1007Z" fill="#13576B"/>
<path d="M68.1578 33.913V33.2263C68.7634 33.4424 69.4154 33.5504 70.1214 33.5504C71.1128 33.5504 71.6104 33.1877 71.6104 32.4586C71.6104 31.8414 71.2439 31.5289 70.511 31.5289H69.6854C68.478 31.5289 67.8723 31.0043 67.8723 29.955C67.8723 28.8517 68.6477 28.3 70.1946 28.3C70.8659 28.3 71.4908 28.3811 72.0695 28.5431V29.2297C71.4908 29.0137 70.8659 28.9057 70.1946 28.9057C69.1454 28.9057 68.6207 29.2568 68.6207 29.955C68.6207 30.5722 68.9756 30.8847 69.6854 30.8847H70.511C71.7416 30.8847 72.355 31.4093 72.355 32.4586C72.355 33.5889 71.6104 34.156 70.1175 34.156C69.4154 34.156 68.7596 34.075 68.1539 33.913" fill="#13576B"/>
<path d="M78.0643 28.3425L75.4758 31.0351L78.4038 34.1136H77.285L74.7313 31.2975V30.8461L77.123 28.3425H78.0682H78.0643ZM74.0832 34.1174H73.3386V28.3463H74.0832V34.1174Z" fill="#13576B"/>
<path d="M82.5392 26.6952V27.3009L80.9229 27.9066V27.3009L82.5392 26.6952ZM78.9053 34.1174L81.3549 28.3463H82.1843L84.6455 34.1174H83.8586L83.0909 32.3005H81.162L81.3665 31.6948H82.8093L81.7445 29.1179L79.6807 34.1174H78.9053Z" fill="#13576B"/>
<path d="M60.2225 43.4299C60.9131 43.4299 61.2564 43.0789 61.2564 42.3806C61.2564 41.6824 60.7935 41.3583 59.8715 41.3583H59.5474V40.8684C60.6507 40.718 61.2024 40.3206 61.2024 39.6725C61.2024 39.1324 60.8938 38.8663 60.2804 38.8663H58.6332V43.4261H60.2187L60.2225 43.4299ZM57.8886 44.0356V38.2606H60.3498C61.4493 38.2606 61.9971 38.7081 61.9971 39.6069C61.9971 40.2628 61.6383 40.7334 60.9208 41.015C61.6846 41.1577 62.0665 41.5937 62.0665 42.3266C62.0665 43.4646 61.4647 44.0356 60.2611 44.0356H57.8848H57.8886Z" fill="#13576B"/>
<path d="M62.5525 44.0356L65.0021 38.2645H65.8277L68.2927 44.0356H67.5058L66.7381 42.2186H64.8092L65.0137 41.6168H66.4565L65.3879 39.0399L63.324 44.0356H62.5525Z" fill="#13576B"/>
<path d="M69.0449 44.0356V38.2645H69.7933L73.3231 42.8744V38.2645H74.0291V44.0356H73.2845L69.7509 39.4256V44.0356H69.0449Z" fill="#13576B"/>
<path d="M80.024 38.2645L77.4355 40.9571L80.3635 44.0356H79.2448L76.691 41.2156V40.7643L79.0827 38.2606H80.0279L80.024 38.2645ZM76.0467 44.0356H75.2983V38.2606H76.0467V44.0356Z" fill="#13576B"/>
<path d="M83.3224 43.4724C84.6996 43.4724 85.3901 42.6931 85.3901 41.1346C85.3901 39.5761 84.6996 38.8277 83.3224 38.8277C81.9452 38.8277 81.2122 39.5954 81.2122 41.1346C81.2122 42.6738 81.9143 43.4724 83.3224 43.4724ZM80.4214 41.1577C80.4214 39.2019 81.3858 38.222 83.3185 38.222C85.2512 38.222 86.1732 39.2019 86.1732 41.1577C86.1732 43.1136 85.2242 44.078 83.3185 44.078C81.4128 44.078 80.4214 43.1059 80.4214 41.1577Z" fill="#13576B"/>
<path d="M92.1797 38.2645L89.7301 44.0356H88.9007L86.4395 38.2645H87.2264L89.3404 43.264L91.4043 38.2645H92.1797Z" fill="#13576B"/>
<path d="M92.9358 44.0356V38.2645H93.6803L97.214 42.8744V38.2645H97.9199V44.0356H97.1754L93.6417 39.4256V44.0356H92.9358Z" fill="#13576B"/>
<path d="M99.2007 44.0356H99.9491V38.2645H99.2007V44.0356ZM100.393 36.6172V37.2229L98.7764 37.8285V37.2229L100.393 36.6172Z" fill="#13576B"/>
<path d="M57.3833 53.9576L59.8329 48.1865H60.6623L63.1236 53.9576H62.3366L61.5689 52.1406H59.6401L59.8484 51.5388H61.2873L60.2226 48.9618L58.1587 53.9576H57.3833Z" fill="#13576B"/>
<path d="M63.9027 53.757V53.0703C64.5083 53.2825 65.1603 53.3943 65.8662 53.3943C66.8577 53.3943 67.3553 53.0317 67.3553 52.3026C67.3553 51.6854 66.9888 51.3729 66.2558 51.3729H65.4303C64.2228 51.3729 63.6172 50.8483 63.6172 49.799C63.6172 48.6957 64.3926 48.144 65.9395 48.144C66.6108 48.144 67.2357 48.225 67.8144 48.3871V49.0737C67.2357 48.8615 66.6108 48.7497 65.9395 48.7497C64.8902 48.7497 64.3656 49.1007 64.3656 49.799C64.3656 50.4162 64.7205 50.7287 65.4303 50.7287H66.2558C67.4865 50.7287 68.0998 51.2533 68.0998 52.3026C68.0998 53.4329 67.3553 54 65.8624 54C65.1603 54 64.5045 53.919 63.8988 53.757" fill="#13576B"/>
<path d="M71.7684 53.3943C73.1456 53.3943 73.8361 52.6151 73.8361 51.0566C73.8361 49.4981 73.1456 48.7497 71.7684 48.7497C70.3912 48.7497 69.6583 49.5174 69.6583 51.0566C69.6583 52.5958 70.3604 53.3943 71.7684 53.3943ZM68.8674 51.0797C68.8674 49.1239 69.8319 48.144 71.7646 48.144C73.6973 48.144 74.6192 49.12 74.6192 51.0797C74.6192 53.0394 73.6664 54 71.7646 54C69.8627 54 68.8674 53.0279 68.8674 51.0797Z" fill="#13576B"/>
<path d="M80.0702 53.757C79.5726 53.919 79.0325 54 78.4538 54C76.4362 54 75.4255 52.997 75.4255 50.991C75.4255 49.093 76.4324 48.144 78.4538 48.144C79.0325 48.144 79.5687 48.225 80.0702 48.3871V49.0351C79.5726 48.8461 79.0595 48.7497 78.5348 48.7497C76.9609 48.7497 76.1739 49.4981 76.1739 50.991C76.1739 52.5919 76.9609 53.3943 78.5348 53.3943C79.0595 53.3943 79.5687 53.2979 80.0702 53.1089V53.757Z" fill="#13576B"/>
<path d="M81.8334 48.1865H81.085V53.9576H81.8334V48.1865Z" fill="#13576B"/>
<path d="M82.5854 53.9576L85.0351 48.1865H85.8606L88.3257 53.9576H87.5387L86.771 52.1406H84.8422L85.0467 51.5388H86.4894L85.4209 48.9618L83.357 53.9576H82.5854Z" fill="#13576B"/>
<path d="M93.2135 53.757C92.7159 53.919 92.1758 54 91.5971 54C89.5796 54 88.5688 52.997 88.5688 50.991C88.5688 49.093 89.5757 48.144 91.5971 48.144C92.1758 48.144 92.712 48.225 93.2135 48.3871V49.0351C92.7159 48.8461 92.2028 48.7497 91.6781 48.7497C90.1042 48.7497 89.3172 49.4981 89.3172 50.991C89.3172 52.5919 90.1042 53.3943 91.6781 53.3943C92.2028 53.3943 92.712 53.2979 93.2135 53.1089V53.757Z" fill="#13576B"/>
<path d="M97.9855 48.1865V48.7921H94.9572V50.7287H97.8466V51.3343H94.9572V53.3519H98.0472V53.9576H94.2126V48.1865H97.9855Z" fill="#13576B"/>
<path d="M54.8216 26.7917H53.8958V53.9499H54.8216V26.7917Z" fill="#13576B"/>
<path d="M61.4763 26.2709H60.8745L60.4695 26.919L60.0644 26.2709H59.4587L60.1647 27.3202H60.7704L61.4763 26.2709Z" fill="#13576B"/>
<path d="M32.8636 29.6657H23.5781V2.36477H34.2331C36.4976 2.36477 41.7633 2.89713 41.7633 7.80797C41.7633 12.7188 38.0213 13.2473 35.1011 13.4016C33.1414 13.4016 28.7243 13.4016 28.7243 13.4016L29.6887 15.7433H36.1349C38.0522 15.7433 44.3171 16.2525 44.3171 22.8028C44.3171 26.2902 42.2378 28.0261 39.9155 28.8748L40.7989 31.039C43.7925 29.9434 46.6626 27.6327 46.6626 22.8028C46.6626 17.973 43.9661 15.3613 40.6986 14.1732C42.6853 12.9348 44.1049 10.8941 44.1049 7.80797C44.1011 2.06773 39.0012 0.0231476 34.2292 0.0231476H21.2327V32.0111H33.8165L32.8598 29.6695L32.8636 29.6657Z" fill="#13576B"/>
<path d="M30.5722 36.3395L28.8671 34.6344C26.0549 37.1727 22.336 38.7197 18.2585 38.7197C9.52079 38.7197 2.41106 31.6099 2.41106 22.8723C2.41106 14.1346 9.13116 7.02486 17.8688 7.02486C18.0694 7.02486 18.27 7.03258 18.4706 7.04029V4.62923C18.27 4.62152 18.0694 4.6138 17.8688 4.6138C7.80026 4.6138 0 12.8037 0 22.8723C0 32.9409 8.18989 41.1307 18.2585 41.1307C22.9996 41.1307 27.324 39.3138 30.5722 36.3395Z" fill="#13576B"/>
<path d="M18.4243 0H10.5083V2.34162H18.4243V0Z" fill="#13576B"/>
<path d="M47.8124 53.9499L33.1184 17.9499H30.5145L40.9109 43.4145H19.0532L14.613 53.9499H17.2131L20.6812 45.8256H41.8946L45.2084 53.9499H47.8124Z" fill="#13576B"/>
</g>
<defs>
<clipPath id="clip0_2005_1096">
<rect width="100.393" height="54" fill="white"/>
</clipPath>
</defs>
</svg>
