<svg width="182" height="54" viewBox="0 0 182 54" fill="none" xmlns="http://www.w3.org/2000/svg">
<g clip-path="url(#clip0_2005_1126)">
<path d="M2.83236 0H24.9418V24.9235H0V2.83029C0 1.26797 1.2689 0 2.83236 0Z" fill="#FF6B6B"/>
<path d="M29.0979 0H51.2073C52.7708 0 54.0397 1.26797 54.0397 2.83029V24.9235H29.0979V0Z" fill="#FF6B6B"/>
<path d="M0 29.0765H24.9418V54H2.83236C1.2689 54 0 52.732 0 51.1697V29.0765Z" fill="#FF6B6B"/>
<path d="M29.0979 29.0765H54.0397V51.1697C54.0397 52.732 52.7708 54 51.2073 54H29.0979V29.0765Z" fill="#FF6B6B"/>
<path d="M14.5488 8.30029C14.5488 7.15296 13.6185 6.22286 12.4708 6.22286C11.3232 6.22286 10.3928 7.15296 10.3928 8.30029V16.6213C10.3928 17.7687 11.3232 18.6988 12.4708 18.6988C13.6185 18.6988 14.5488 17.7687 14.5488 16.6213V8.30029Z" fill="white"/>
<path d="M16.6354 14.5382C17.7836 14.5382 18.7144 13.6086 18.7144 12.4618C18.7144 11.3149 17.7836 10.3853 16.6354 10.3853H8.30826C7.16009 10.3853 6.22931 11.3149 6.22931 12.4618C6.22931 13.6086 7.16009 14.5382 8.30826 14.5382H16.6354Z" fill="white"/>
<path d="M18.1455 35.8695L18.1441 35.8682C17.3337 35.0584 16.0198 35.0584 15.2094 35.8682L6.79637 44.2751C5.98596 45.0849 5.98596 46.3979 6.79636 47.2077L6.7977 47.209C7.60811 48.0188 8.92204 48.0188 9.73244 47.209L18.1455 38.8021C18.9559 37.9923 18.9559 36.6794 18.1455 35.8695Z" fill="white"/>
<path d="M18.1438 47.2086L18.1452 47.2073C18.9556 46.3975 18.9556 45.0845 18.1452 44.2747L9.73216 35.8678C8.92175 35.058 7.60782 35.058 6.79741 35.8678L6.79607 35.8692C5.98567 36.679 5.98567 37.9919 6.79608 38.8018L15.2091 47.2086C16.0195 48.0184 17.3334 48.0184 18.1438 47.2086Z" fill="white"/>
<path d="M45.7333 14.5382C46.8815 14.5382 47.8123 13.6086 47.8123 12.4618C47.8123 11.3149 46.8815 10.3853 45.7333 10.3853H37.4062C36.258 10.3853 35.3272 11.3149 35.3272 12.4618C35.3272 13.6086 36.258 14.5382 37.4062 14.5382H45.7333Z" fill="white"/>
<path d="M45.7333 39.4561C46.8815 39.4561 47.8123 38.5264 47.8123 37.3796C47.8123 36.2328 46.8815 35.3031 45.7333 35.3031H37.4062C36.258 35.3031 35.3272 36.2328 35.3272 37.3796C35.3272 38.5264 36.258 39.4561 37.4062 39.4561H45.7333Z" fill="white"/>
<path d="M45.7314 47.7734C46.8795 47.7734 47.8103 46.8437 47.8103 45.6969C47.8103 44.5501 46.8795 43.6204 45.7314 43.6204H37.4042C36.256 43.6204 35.3253 44.5501 35.3253 45.6969C35.3253 46.8437 36.256 47.7734 37.4042 47.7734H45.7314Z" fill="white"/>
<path d="M67.2083 15.7175V3.50578H69.5402L74.7272 12.1231H73.4923L78.5925 3.50578H80.9074L80.9433 15.7175H78.2979L78.2809 7.57008H78.7681L74.6951 14.425H73.4243L69.2645 7.57008H69.8556V15.7175H67.2101H67.2083Z" fill="#13576B"/>
<path d="M82.2273 15.7175L87.6579 3.50578H90.443L95.8906 15.7175H92.9317L88.4755 4.93602H89.5895L85.1163 15.7175H82.2273ZM84.9426 13.1005L85.6903 10.9551H91.9555L92.7221 13.1005H84.9426ZM87.4653 2.51141L89.8142 0H92.7372L89.5877 2.51141H87.4653Z" fill="#13576B"/>
<path d="M101.163 15.927C100.188 15.927 99.2535 15.7968 98.3604 15.5345C97.4673 15.2722 96.7479 14.9326 96.2021 14.5137L97.1595 12.3853C97.6825 12.757 98.3 13.0627 99.0137 13.3005C99.7275 13.5382 100.449 13.6571 101.18 13.6571C101.737 13.6571 102.186 13.6024 102.528 13.491C102.87 13.3816 103.123 13.2269 103.285 13.0288C103.447 12.8306 103.529 12.6042 103.529 12.3476C103.529 12.0231 103.4 11.7627 103.145 11.5721C102.89 11.3796 102.554 11.223 102.135 11.1004C101.718 10.9777 101.257 10.8626 100.751 10.7513C100.247 10.64 99.7407 10.5041 99.2365 10.3419C98.7324 10.1796 98.2698 9.97016 97.8525 9.71355C97.4352 9.45693 97.0953 9.12107 96.8347 8.70219C96.5741 8.28331 96.4438 7.74933 96.4438 7.09647C96.4438 6.39834 96.6327 5.76247 97.0084 5.18697C97.3861 4.61148 97.9544 4.15298 98.7135 3.80957C99.4726 3.46616 100.428 3.29445 101.576 3.29445C102.343 3.29445 103.096 3.38502 103.838 3.56428C104.58 3.74541 105.235 4.01523 105.806 4.37562L104.935 6.52098C104.367 6.19644 103.799 5.95492 103.23 5.79643C102.662 5.63982 102.105 5.56057 101.559 5.56057C101.013 5.56057 100.568 5.62472 100.218 5.75303C99.871 5.88134 99.6199 6.04738 99.4707 6.24927C99.3196 6.45306 99.2441 6.68891 99.2441 6.95496C99.2441 7.26818 99.3725 7.52102 99.6274 7.71348C99.8823 7.90594 100.218 8.05877 100.638 8.17576C101.055 8.29274 101.516 8.40784 102.022 8.52483C102.526 8.64181 103.032 8.77578 103.536 8.92673C104.04 9.07768 104.503 9.28146 104.92 9.53807C105.337 9.79468 105.677 10.1305 105.938 10.5494C106.198 10.9683 106.329 11.4985 106.329 12.1382C106.329 12.825 106.138 13.4514 105.755 14.0212C105.371 14.5911 104.801 15.0496 104.04 15.3987C103.279 15.7477 102.32 15.9213 101.161 15.9213L101.163 15.927ZM100.171 2.51141L97.8732 0H99.8578L102.26 2.07554H100.485L102.887 0H104.871L102.573 2.51141H100.171Z" fill="#13576B"/>
<path d="M71.1075 33.2351V23.3272H67.2083V21.0253H77.8239V23.3272H73.9247V33.2351H71.1056H71.1075Z" fill="#13576B"/>
<path d="M85.0824 33.4446C84.1194 33.4446 83.2281 33.288 82.4105 32.9728C81.5929 32.6596 80.8848 32.2162 80.2881 31.6464C79.6896 31.0766 79.2269 30.4086 78.8965 29.6407C78.5661 28.8727 78.3999 28.0349 78.3999 27.1292C78.3999 26.2236 78.5661 25.3858 78.8965 24.6178C79.2269 23.8499 79.6933 23.1819 80.2976 22.6121C80.8999 22.0423 81.608 21.6008 82.42 21.2856C83.2319 20.9724 84.1137 20.8139 85.0654 20.8139C86.0171 20.8139 86.9121 20.9705 87.7203 21.2856C88.5265 21.5989 89.229 22.0423 89.8256 22.6121C90.4223 23.1819 90.8906 23.848 91.2267 24.6103C91.5628 25.3726 91.7309 26.2122 91.7309 27.1311C91.7309 28.05 91.5628 28.8784 91.2267 29.652C90.8906 30.4256 90.4223 31.0935 89.8256 31.6577C89.2271 32.2219 88.5265 32.6615 87.7203 32.9747C86.914 33.288 86.0341 33.4464 85.0843 33.4464L85.0824 33.4446ZM85.0654 31.0369C85.6111 31.0369 86.1115 30.9445 86.5703 30.7577C87.0292 30.5728 87.4314 30.3048 87.7807 29.9558C88.1281 29.6067 88.3981 29.1935 88.5907 28.718C88.7815 28.2406 88.8778 27.7123 88.8778 27.1311C88.8778 26.55 88.7815 26.0217 88.5907 25.5443C88.4 25.0669 88.1319 24.6537 87.7901 24.3065C87.4483 23.9574 87.0443 23.6914 86.5798 23.5046C86.1153 23.3197 85.6111 23.2253 85.0654 23.2253C84.5197 23.2253 84.0174 23.3178 83.5605 23.5046C83.1016 23.6914 82.6994 23.9574 82.3501 24.3065C82.0027 24.6556 81.7326 25.0688 81.54 25.5443C81.3493 26.0217 81.253 26.55 81.253 27.1311C81.253 27.7123 81.3493 28.2274 81.54 28.7104C81.7308 29.1935 81.9989 29.6086 82.3407 29.9577C82.6824 30.3067 83.0865 30.5747 83.551 30.7596C84.0155 30.9464 84.5197 31.0388 85.0654 31.0388V31.0369Z" fill="#13576B"/>
<path d="M72.1687 50.964C71.1943 50.964 70.2596 50.8338 69.3665 50.5716C68.4734 50.3093 67.754 49.9697 67.2083 49.5508L68.1656 47.4224C68.6886 47.7941 69.3061 48.0998 70.0198 48.3375C70.7336 48.5753 71.4549 48.6942 72.1857 48.6942C72.7427 48.6942 73.1921 48.6394 73.5339 48.5281C73.8756 48.4187 74.1287 48.264 74.291 48.0658C74.4534 47.8677 74.5346 47.6413 74.5346 47.3847C74.5346 47.0601 74.4062 46.7998 74.1513 46.6092C73.8964 46.4167 73.5603 46.2601 73.1411 46.1375C72.7238 46.0148 72.2631 45.8997 71.757 45.7884C71.2529 45.6771 70.7468 45.5412 70.2427 45.3789C69.7385 45.2167 69.2759 45.0072 68.8586 44.7506C68.4413 44.494 68.1014 44.1581 67.8408 43.7393C67.5802 43.3204 67.4499 42.7864 67.4499 42.1335C67.4499 41.4354 67.6388 40.7995 68.0145 40.224C68.3922 39.6486 68.9605 39.1901 69.7196 38.8466C70.4787 38.5032 71.4341 38.3315 72.5822 38.3315C73.3488 38.3315 74.1022 38.4221 74.8443 38.6013C75.5864 38.7825 76.2416 39.0523 76.8118 39.4127L75.9414 41.5581C75.373 41.2335 74.8046 40.992 74.2363 40.8335C73.6679 40.6769 73.1109 40.5976 72.5652 40.5976C72.0195 40.5976 71.5739 40.6618 71.2245 40.7901C70.8771 40.9184 70.626 41.0845 70.4768 41.2863C70.3257 41.4901 70.2502 41.726 70.2502 41.992C70.2502 42.3053 70.3786 42.5581 70.6335 42.7506C70.8884 42.943 71.2245 43.0958 71.6437 43.2128C72.061 43.3298 72.5218 43.4449 73.0278 43.5619C73.532 43.6789 74.038 43.8129 74.5422 43.9638C75.0463 44.1147 75.509 44.3185 75.9263 44.5751C76.3436 44.8318 76.6834 45.1676 76.944 45.5865C77.2046 46.0054 77.3349 46.5356 77.3349 47.1752C77.3349 47.8621 77.1442 48.4885 76.7609 49.0583C76.3775 49.6281 75.8073 50.0867 75.0463 50.4357C74.2854 50.7848 73.3262 50.9584 72.1668 50.9584L72.1687 50.964Z" fill="#13576B"/>
<path d="M79.2686 50.7546V38.5429H84.5424C85.6319 38.5429 86.5723 38.7202 87.3616 39.075C88.1508 39.4297 88.7589 39.9391 89.1894 40.6014C89.618 41.2637 89.8333 42.0562 89.8333 42.9732C89.8333 43.8902 89.618 44.6657 89.1894 45.328C88.7607 45.9903 88.1508 46.4997 87.3616 46.8545C86.5723 47.2092 85.6319 47.3866 84.5424 47.3866H80.8358L82.0896 46.1129V50.7527H79.2704L79.2686 50.7546ZM82.0877 46.428L80.8339 45.0846H84.3838C85.2543 45.0846 85.9038 44.8997 86.3325 44.5261C86.7611 44.1544 86.9764 43.6355 86.9764 42.9732C86.9764 42.3109 86.7611 41.775 86.3325 41.4033C85.9038 41.0316 85.2543 40.8448 84.3838 40.8448H80.8339L82.0877 39.5014V46.4262V46.428Z" fill="#13576B"/>
<path d="M97.9261 50.964C96.9631 50.964 96.0719 50.8074 95.2543 50.4923C94.4367 50.1791 93.7286 49.7357 93.1319 49.1659C92.5333 48.596 92.0707 47.9281 91.7403 47.1601C91.4098 46.3922 91.2437 45.5544 91.2437 44.6487C91.2437 43.743 91.4098 42.9053 91.7403 42.1373C92.0707 41.3694 92.5371 40.7014 93.1413 40.1316C93.7437 39.5618 94.4518 39.1202 95.2637 38.8051C96.0757 38.49 96.9575 38.3334 97.9091 38.3334C98.8608 38.3334 99.7558 38.49 100.564 38.8051C101.37 39.1184 102.073 39.5618 102.669 40.1316C103.266 40.7014 103.734 41.3675 104.07 42.1298C104.407 42.8921 104.575 43.7317 104.575 44.6506C104.575 45.5695 104.407 46.3979 104.07 47.1715C103.734 47.9451 103.268 48.613 102.669 49.1772C102.073 49.7414 101.37 50.181 100.564 50.4942C99.7577 50.8074 98.8778 50.9659 97.928 50.9659L97.9261 50.964ZM97.9073 48.5564C98.453 48.5564 98.9533 48.464 99.4122 48.2772C99.871 48.0922 100.273 47.8243 100.623 47.4752C100.97 47.1262 101.24 46.713 101.433 46.2375C101.623 45.7601 101.72 45.2318 101.72 44.6506C101.72 44.0695 101.623 43.5411 101.433 43.0638C101.242 42.5864 100.974 42.1732 100.632 41.826C100.29 41.4769 99.8861 41.2109 99.4216 41.0241C98.9571 40.8392 98.453 40.7448 97.9073 40.7448C97.3616 40.7448 96.8593 40.8373 96.4023 41.0241C95.9435 41.2109 95.5413 41.4769 95.192 41.826C94.8426 42.1751 94.5745 42.5883 94.3819 43.0638C94.1912 43.5411 94.0949 44.0695 94.0949 44.6506C94.0949 45.2318 94.1912 45.7469 94.3819 46.2299C94.5726 46.713 94.8407 47.1281 95.1825 47.4771C95.5243 47.8262 95.9284 48.0941 96.3929 48.279C96.8574 48.4658 97.3616 48.5583 97.9073 48.5583V48.5564Z" fill="#13576B"/>
<path d="M112.526 50.9641C111.586 50.9641 110.713 50.8093 109.907 50.5018C109.101 50.1942 108.402 49.7546 107.809 49.1847C107.218 48.6149 106.756 47.947 106.425 47.179C106.095 46.4111 105.928 45.5676 105.928 44.6487C105.928 43.7298 106.095 42.8864 106.425 42.1185C106.756 41.3505 107.22 40.6826 107.817 40.1127C108.413 39.5429 109.114 39.1033 109.915 38.7957C110.715 38.4881 111.591 38.3334 112.543 38.3334C113.599 38.3334 114.554 38.5164 115.406 38.8825C116.259 39.2485 116.975 39.7863 117.554 40.4958L115.745 42.1694C115.328 41.692 114.864 41.3354 114.354 41.0977C113.844 40.8599 113.287 40.7392 112.683 40.7392C112.114 40.7392 111.591 40.8316 111.117 41.0184C110.642 41.2052 110.23 41.4713 109.882 41.8203C109.535 42.1694 109.265 42.5826 109.072 43.0581C108.882 43.5355 108.785 44.0638 108.785 44.645C108.785 45.2261 108.882 45.7563 109.072 46.2318C109.263 46.7092 109.533 47.1224 109.882 47.4696C110.23 47.8187 110.642 48.0866 111.117 48.2715C111.593 48.4583 112.114 48.5508 112.683 48.5508C113.285 48.5508 113.842 48.4319 114.354 48.1923C114.864 47.9545 115.328 47.5903 115.745 47.1017L117.554 48.7772C116.975 49.4866 116.257 50.0282 115.406 50.3999C114.554 50.7716 113.593 50.9584 112.526 50.9584V50.9641ZM111.238 37.5485L108.94 35.0371H110.925L113.327 37.1126H111.552L113.953 35.0371H115.938L113.64 37.5485H111.238Z" fill="#13576B"/>
<path d="M119.122 37.5485L121.471 35.0371H124.394L121.244 37.5485H119.122ZM119.297 50.7546V38.5429H122.116V50.7546H119.297Z" fill="#13576B"/>
<path d="M127.528 50.7546V40.8467H123.629V38.5447H134.245V40.8467H130.347V50.7546H127.528Z" fill="#13576B"/>
<path d="M133.55 50.7546L138.98 38.5429H141.766L147.213 50.7546H144.254L139.798 39.9731H140.912L136.439 50.7546H133.55ZM136.265 48.1375L137.013 45.9922H143.278L144.043 48.1375H136.263H136.265Z" fill="#13576B"/>
<path d="M148.482 50.7546V38.5429H150.814L158 47.3356H156.869V38.5429H159.655V50.7546H157.34L150.134 41.9618H151.265V50.7546H148.48H148.482Z" fill="#13576B"/>
<path d="M165.382 50.7546V45.7658L166.026 47.4752L160.665 38.5447H163.658L167.765 45.3997H166.043L170.166 38.5447H172.933L167.572 47.4752L168.199 45.7658V50.7546H165.38H165.382ZM165.206 37.5485L167.555 35.0371H170.48L167.33 37.5485H165.208H165.206Z" fill="#13576B"/>
<path d="M176.449 46.5148C176.449 46.1073 176.515 45.7469 176.649 45.4337C176.783 45.1204 176.951 44.8412 177.153 44.5959C177.355 44.3525 177.574 44.1242 177.806 43.9147C178.039 43.7053 178.256 43.5053 178.46 43.3128C178.662 43.1204 178.832 42.9204 178.964 42.7109C179.098 42.5015 179.164 42.2694 179.164 42.0128C179.164 41.5939 178.992 41.2562 178.65 41.0014C178.309 40.7448 177.852 40.6165 177.283 40.6165C176.715 40.6165 176.25 40.7297 175.822 40.9561C175.393 41.1826 175.038 41.4996 174.761 41.9071L172.655 40.6693C173.12 39.9599 173.764 39.3938 174.587 38.9693C175.41 38.5447 176.409 38.3315 177.58 38.3315C178.45 38.3315 179.215 38.4561 179.878 38.707C180.539 38.958 181.058 39.3202 181.436 39.7976C181.811 40.275 182 40.8618 182 41.5599C182 42.0128 181.93 42.4147 181.791 42.7638C181.651 43.1128 181.471 43.4147 181.251 43.6713C181.03 43.928 180.795 44.1657 180.546 44.3865C180.297 44.6072 180.061 44.8223 179.842 45.0318C179.621 45.2412 179.438 45.462 179.294 45.6941C179.149 45.9261 179.077 46.1997 179.077 46.5129H176.449V46.5148ZM177.772 50.8923C177.285 50.8923 176.885 50.7357 176.571 50.4206C176.258 50.1074 176.101 49.7338 176.101 49.3036C176.101 48.8734 176.258 48.4923 176.571 48.196C176.885 47.8998 177.285 47.7507 177.772 47.7507C178.26 47.7507 178.675 47.8998 178.983 48.196C179.291 48.4923 179.444 48.8621 179.444 49.3036C179.444 49.7451 179.289 50.1055 178.983 50.4206C178.675 50.7338 178.273 50.8923 177.772 50.8923Z" fill="#13576B"/>
</g>
<defs>
<clipPath id="clip0_2005_1126">
<rect width="182" height="54" fill="white"/>
</clipPath>
</defs>
</svg>
