<svg preserveAspectRatio="none" width="100%" height="100%" overflow="visible" style="display: block;" viewBox="0 0 60 57" fill="none" xmlns="http://www.w3.org/2000/svg">
<g id="Group">
<path id="Vector" d="M60 30C60 16.766 47.888 6 33 6C30.318 6 27.622 6.38004 24.965 7.13004L16.8741 0.65707C16.332 0.223945 15.669 0 15 0C14.558 0 14.1139 0.0970311 13.701 0.296016C12.6611 0.796055 12 1.84699 12 3V15.002C10.305 16.862 8.96004 18.87 7.97895 21H3C1.34297 21 0 22.343 0 24V36C0 37.657 1.34297 39 3 39H8.00098C9.16793 41.565 10.8179 43.923 12.88 45.977C12.309 47.042 12 48.246 12 49.5C12 53.636 15.365 57 19.5 57C22.297 57 24.742 55.46 26.031 53.184C28.303 53.726 30.636 54 33 54C35.364 54 37.697 53.726 39.969 53.184C41.258 55.46 43.703 57 46.5 57C50.635 57 54 53.636 54 49.5C54 48.247 53.691 47.043 53.122 45.979C57.527 41.602 60 35.922 60 30ZM48.896 45.703C50.157 46.5011 51 47.898 51 49.5C51 51.985 48.985 54 46.5 54C44.015 54 42 51.985 42 49.5C42 49.485 42.004 49.472 42.004 49.458C39.222 50.445 36.187 51 33 51C29.813 51 26.778 50.445 23.996 49.458C23.996 49.4721 24 49.485 24 49.5C24 51.985 21.985 54 19.5 54C17.015 54 15 51.985 15 49.5C15 47.898 15.843 46.5011 17.104 45.703C13.8009 43.1411 11.332 39.7921 10.032 36H3V24H10.007C11.004 21.07 12.758 18.444 15 16.203V3L24.334 10.467C27.0289 9.54891 29.933 9 33 9C46.255 9 57 18.402 57 30C57 36.2561 53.856 41.856 48.896 45.703Z" fill="var(--fill-0, #13576B)"/>
</g>
</svg>
